<?xml version="1.0" encoding="utf-8"?>
<!-- Generator: Adobe Illustrator 24.1.0, SVG Export Plug-In . SVG Version: 6.00 Build 0)  -->
<svg version="1.1" xmlns="http://www.w3.org/2000/svg" xmlns:xlink="http://www.w3.org/1999/xlink" x="0px" y="0px"
	 viewBox="0 0 524.11 77.19" style="enable-background:new 0 0 524.11 77.19;" xml:space="preserve">
<style type="text/css">
	.st0{fill:#878787;}
	.st1{fill:#56AC53;}
	.st2{fill:#4B2985;}
</style>
<g id="Layer_1">
	<g>
		<path class="st0" d="M46.18,24.4l-0.54,3.04c-0.13,0.79-0.44,1.36-0.93,1.72c-0.48,0.36-1.24,0.54-2.28,0.54h-3.98l-1.92,10.06
			h5.37c0.74,0,1.28,0.23,1.62,0.68c0.34,0.45,0.42,1.23,0.24,2.33l-0.34,2.33h-7.66l-2.7,13.98h-3.31c-0.34,0-0.66-0.08-0.96-0.24
			c-0.3-0.16-0.56-0.38-0.76-0.66s-0.34-0.61-0.42-0.98c-0.08-0.37-0.07-0.77,0.02-1.2l2.16-10.9h-7.56l-2.16,11.28
			c-0.18,0.97-0.58,1.66-1.2,2.08c-0.62,0.42-1.32,0.62-2.11,0.62h-3.21l2.7-13.98h-4.35c-0.74,0-1.28-0.23-1.62-0.69
			c-0.34-0.46-0.43-1.23-0.27-2.31l0.37-2.33h6.65l1.92-10.06h-7.49l0.54-3.04c0.13-0.79,0.44-1.36,0.93-1.72
			c0.48-0.36,1.24-0.54,2.28-0.54h4.52l2.23-11.41c0.16-0.79,0.52-1.41,1.1-1.86s1.25-0.67,2.04-0.67h3.27l-2.7,13.94h7.6l2.7-13.94
			h3.21c0.79,0,1.4,0.25,1.84,0.74c0.44,0.5,0.59,1.11,0.46,1.86L39.22,24.4H46.18z M32.5,29.7h-7.6l-1.96,10.06h7.6L32.5,29.7z"/>
		<path class="st0" d="M98.98,34.77c0,3.6-0.59,6.92-1.76,9.96c-1.17,3.04-2.82,5.65-4.95,7.85s-4.68,3.91-7.66,5.15
			c-2.98,1.24-6.3,1.86-9.94,1.86c-3.62,0-6.93-0.62-9.91-1.86c-2.98-1.24-5.54-2.95-7.68-5.15s-3.79-4.81-4.96-7.85
			c-1.17-3.04-1.76-6.36-1.76-9.96c0-3.6,0.58-6.92,1.76-9.96c1.17-3.04,2.82-5.66,4.96-7.87c2.14-2.21,4.7-3.93,7.68-5.17
			c2.98-1.24,6.28-1.86,9.91-1.86c3.65,0,6.96,0.62,9.94,1.86c2.98,1.24,5.54,2.96,7.66,5.17c2.13,2.21,3.77,4.83,4.95,7.87
			C98.39,27.85,98.98,31.17,98.98,34.77z M90.91,34.77c0-2.79-0.38-5.3-1.13-7.53c-0.75-2.23-1.83-4.12-3.24-5.67
			c-1.41-1.55-3.11-2.75-5.11-3.58c-2-0.83-4.25-1.25-6.75-1.25c-2.48,0-4.72,0.42-6.72,1.25c-2,0.83-3.71,2.03-5.13,3.58
			s-2.51,3.44-3.27,5.67c-0.77,2.23-1.15,4.74-1.15,7.53c0,2.81,0.38,5.33,1.15,7.56c0.77,2.23,1.86,4.11,3.27,5.65
			c1.42,1.54,3.13,2.72,5.13,3.54c2,0.82,4.24,1.23,6.72,1.23c2.5,0,4.75-0.41,6.75-1.23c2-0.82,3.71-2,5.11-3.54
			c1.41-1.54,2.49-3.43,3.24-5.65C90.53,40.1,90.91,37.58,90.91,34.77z"/>
		<path class="st0" d="M112.55,29.64c1.44-1.69,3.08-3.05,4.91-4.08c1.83-1.04,3.97-1.55,6.4-1.55c1.94,0,3.69,0.39,5.27,1.17
			c1.58,0.78,2.93,1.91,4.05,3.39c1.12,1.49,2,3.33,2.62,5.52c0.62,2.19,0.93,4.71,0.93,7.55c0,2.54-0.34,4.91-1.03,7.11
			s-1.67,4.1-2.95,5.71c-1.28,1.61-2.84,2.87-4.66,3.78c-1.82,0.91-3.88,1.37-6.18,1.37c-2.03,0-3.74-0.33-5.15-0.98
			c-1.41-0.65-2.68-1.55-3.83-2.7v14.62h-7.26V24.64h4.39c0.99,0,1.62,0.46,1.89,1.38L112.55,29.64z M112.92,50.43
			c1.01,1.31,2.12,2.22,3.33,2.75c1.2,0.53,2.54,0.79,4,0.79c2.84,0,5.05-1.04,6.63-3.11c1.59-2.07,2.38-5.15,2.38-9.25
			c0-2.12-0.18-3.92-0.54-5.42c-0.36-1.5-0.88-2.72-1.55-3.66c-0.68-0.95-1.5-1.63-2.46-2.06c-0.97-0.43-2.06-0.64-3.27-0.64
			c-1.85,0-3.44,0.4-4.78,1.2c-1.34,0.8-2.58,1.94-3.73,3.43V50.43z"/>
		<path class="st0" d="M149.04,42.43c0.09,1.96,0.39,3.65,0.91,5.08c0.52,1.43,1.21,2.62,2.08,3.56c0.87,0.95,1.9,1.65,3.11,2.11
			s2.55,0.69,4.03,0.69c1.42,0,2.64-0.16,3.68-0.49c1.03-0.33,1.94-0.69,2.7-1.08c0.76-0.39,1.42-0.75,1.96-1.08
			s1.03-0.49,1.49-0.49c0.58,0,1.04,0.23,1.35,0.68l2.06,2.67c-0.86,1.01-1.82,1.87-2.9,2.57c-1.08,0.7-2.23,1.27-3.44,1.71
			c-1.22,0.44-2.46,0.75-3.75,0.95c-1.28,0.19-2.53,0.29-3.75,0.29c-2.39,0-4.6-0.4-6.63-1.2c-2.04-0.8-3.8-1.97-5.3-3.53
			s-2.67-3.48-3.51-5.77c-0.84-2.29-1.27-4.94-1.27-7.93c0-2.39,0.38-4.61,1.13-6.68s1.83-3.87,3.24-5.4
			c1.41-1.53,3.12-2.74,5.13-3.63c2.01-0.89,4.29-1.33,6.84-1.33c2.12,0,4.07,0.34,5.87,1.03c1.8,0.69,3.35,1.69,4.66,3.02
			c1.31,1.33,2.32,2.95,3.06,4.88c0.73,1.92,1.1,4.11,1.1,6.57c0,1.13-0.12,1.88-0.37,2.26c-0.25,0.38-0.7,0.57-1.35,0.57H149.04z
			 M166.36,37.97c0-1.21-0.17-2.35-0.52-3.39c-0.35-1.05-0.86-1.96-1.54-2.73c-0.68-0.78-1.51-1.38-2.52-1.82
			c-1-0.44-2.16-0.66-3.46-0.66c-2.63,0-4.7,0.75-6.21,2.26c-1.51,1.51-2.46,3.62-2.87,6.35H166.36z"/>
		<path class="st0" d="M186.41,29.2c0.74-0.76,1.51-1.46,2.31-2.08s1.65-1.15,2.55-1.6c0.9-0.45,1.86-0.8,2.87-1.05
			c1.01-0.25,2.12-0.37,3.31-0.37c1.89,0,3.55,0.32,4.98,0.95c1.43,0.63,2.63,1.52,3.61,2.67c0.98,1.15,1.72,2.53,2.21,4.14
			c0.49,1.61,0.74,3.38,0.74,5.32v21.91h-7.22V37.16c0-2.32-0.53-4.12-1.6-5.4c-1.07-1.28-2.7-1.92-4.88-1.92
			c-1.62,0-3.12,0.37-4.51,1.11c-1.38,0.74-2.68,1.76-3.9,3.04v25.08h-7.26V24.64h4.39c0.99,0,1.62,0.46,1.89,1.38L186.41,29.2z"/>
		<path class="st0" d="M250.45,41.11v4.19c0,0.4-0.13,0.75-0.39,1.05c-0.26,0.29-0.65,0.44-1.16,0.44h-5.17v12.29h-6.31V46.79
			h-21.03c-0.52,0-0.96-0.15-1.33-0.46c-0.37-0.3-0.61-0.68-0.73-1.13l-0.74-3.71l23.33-31.06h6.82v30.69H250.45z M237.42,41.11
			V23.36c0-1.42,0.1-2.97,0.3-4.66l-16.34,22.42H237.42z"/>
		<path class="st0" d="M274.18,10.46c3.11,0,5.76,0.3,7.97,0.89c2.21,0.6,4.02,1.45,5.44,2.55c1.42,1.1,2.46,2.45,3.12,4.03
			c0.66,1.59,1,3.37,1,5.35c0,1.15-0.17,2.26-0.52,3.33c-0.35,1.07-0.89,2.07-1.62,3c-0.73,0.93-1.65,1.77-2.75,2.52
			c-1.1,0.74-2.41,1.36-3.92,1.86c6.89,1.46,10.33,5.12,10.33,10.97c0,2.07-0.39,3.97-1.17,5.69c-0.78,1.72-1.9,3.21-3.38,4.46
			c-1.47,1.25-3.29,2.22-5.45,2.92c-2.16,0.7-4.62,1.05-7.39,1.05h-17.82V10.46H274.18z M265.91,16.64v15.19h7.9
			c3.38,0,5.9-0.65,7.56-1.96c1.67-1.3,2.5-3.18,2.5-5.64c0-2.68-0.78-4.61-2.35-5.81c-1.56-1.19-4.01-1.79-7.34-1.79H265.91z
			 M275.7,52.83c1.78,0,3.28-0.21,4.51-0.62c1.23-0.42,2.23-0.98,3-1.71c0.78-0.72,1.34-1.57,1.69-2.55
			c0.35-0.98,0.52-2.03,0.52-3.16c0-2.3-0.78-4.1-2.35-5.42c-1.56-1.32-4.03-1.98-7.41-1.98h-9.76v15.43H275.7z"/>
		<path class="st0" d="M329.11,24.64v34.43h-4.39c-0.97,0-1.59-0.46-1.86-1.38l-0.54-3.21c-0.72,0.76-1.48,1.46-2.28,2.09
			s-1.65,1.17-2.55,1.62s-1.86,0.8-2.89,1.05s-2.12,0.37-3.29,0.37c-1.89,0-3.56-0.32-5-0.95c-1.44-0.63-2.65-1.52-3.63-2.67
			c-0.98-1.15-1.72-2.53-2.21-4.14c-0.49-1.61-0.74-3.38-0.74-5.32V24.64H307v21.91c0,2.32,0.54,4.12,1.6,5.4
			c1.07,1.28,2.7,1.92,4.88,1.92c1.6,0,3.09-0.37,4.47-1.1c1.38-0.73,2.68-1.74,3.9-3.02V24.64H329.11z"/>
		<path class="st0" d="M358.51,30.88c-0.18,0.32-0.38,0.54-0.61,0.68s-0.51,0.2-0.84,0.2c-0.38,0-0.8-0.12-1.25-0.36
			s-0.98-0.5-1.59-0.79c-0.61-0.29-1.32-0.56-2.14-0.79c-0.82-0.24-1.78-0.35-2.89-0.35c-0.9,0-1.72,0.11-2.45,0.32
			s-1.35,0.52-1.86,0.91c-0.51,0.39-0.89,0.86-1.17,1.38c-0.27,0.53-0.41,1.1-0.41,1.7c0,0.81,0.25,1.49,0.74,2.03
			c0.49,0.54,1.15,1.01,1.96,1.4c0.81,0.39,1.73,0.75,2.77,1.06c1.04,0.32,2.09,0.65,3.17,1.01c1.08,0.36,2.14,0.78,3.17,1.25
			s1.96,1.05,2.77,1.74c0.81,0.69,1.46,1.52,1.96,2.5c0.5,0.98,0.74,2.17,0.74,3.56c0,1.62-0.29,3.12-0.88,4.49
			c-0.59,1.37-1.44,2.57-2.57,3.58c-1.13,1.01-2.53,1.8-4.2,2.36c-1.68,0.56-3.6,0.84-5.76,0.84c-1.19,0-2.35-0.11-3.46-0.32
			c-1.11-0.21-2.17-0.51-3.17-0.88c-1-0.37-1.94-0.82-2.8-1.33c-0.87-0.52-1.64-1.08-2.31-1.69l1.69-2.77
			c0.2-0.34,0.46-0.6,0.76-0.79s0.68-0.29,1.13-0.29c0.47,0,0.94,0.15,1.4,0.46c0.46,0.3,1,0.64,1.62,1c0.62,0.36,1.37,0.69,2.25,1
			c0.88,0.3,1.97,0.46,3.27,0.46c1.08,0,2.01-0.13,2.8-0.39c0.79-0.26,1.44-0.61,1.96-1.06c0.52-0.45,0.9-0.96,1.15-1.54
			c0.25-0.57,0.37-1.19,0.37-1.84c0-0.88-0.25-1.6-0.74-2.16s-1.15-1.05-1.97-1.45c-0.82-0.41-1.76-0.77-2.8-1.08
			c-1.05-0.31-2.11-0.65-3.19-1.01c-1.08-0.36-2.14-0.78-3.19-1.25s-1.98-1.07-2.8-1.81c-0.82-0.73-1.48-1.62-1.97-2.67
			c-0.5-1.05-0.74-2.32-0.74-3.83c0-1.37,0.28-2.68,0.83-3.92c0.55-1.24,1.36-2.33,2.43-3.27c1.07-0.95,2.38-1.69,3.95-2.25
			c1.56-0.55,3.37-0.83,5.42-0.83c2.32,0,4.42,0.37,6.31,1.11c1.89,0.74,3.48,1.75,4.76,3.04L358.51,30.88z"/>
		<path class="st0" d="M376.21,14.24c0,0.65-0.13,1.27-0.39,1.86s-0.61,1.1-1.06,1.54c-0.45,0.44-0.97,0.79-1.57,1.05
			c-0.6,0.26-1.23,0.39-1.91,0.39c-0.65,0-1.27-0.13-1.84-0.39c-0.57-0.26-1.07-0.61-1.5-1.05c-0.43-0.44-0.77-0.95-1.03-1.54
			c-0.26-0.58-0.39-1.2-0.39-1.86c0-0.67,0.13-1.3,0.39-1.89c0.26-0.58,0.6-1.1,1.03-1.54c0.43-0.44,0.93-0.79,1.5-1.05
			c0.57-0.26,1.19-0.39,1.84-0.39c0.67,0,1.31,0.13,1.91,0.39c0.6,0.26,1.12,0.61,1.57,1.05c0.45,0.44,0.8,0.95,1.06,1.54
			S376.21,13.57,376.21,14.24z M374.99,24.64v34.43h-7.26V24.64H374.99z"/>
		<path class="st0" d="M390.92,29.2c0.74-0.76,1.51-1.46,2.31-2.08s1.65-1.15,2.55-1.6s1.86-0.8,2.87-1.05
			c1.01-0.25,2.12-0.37,3.31-0.37c1.89,0,3.55,0.32,4.98,0.95c1.43,0.63,2.63,1.52,3.61,2.67c0.98,1.15,1.72,2.53,2.21,4.14
			c0.49,1.61,0.74,3.38,0.74,5.32v21.91h-7.22V37.16c0-2.32-0.54-4.12-1.6-5.4c-1.07-1.28-2.7-1.92-4.88-1.92
			c-1.62,0-3.12,0.37-4.51,1.11c-1.38,0.74-2.68,1.76-3.9,3.04v25.08h-7.26V24.64h4.39c0.99,0,1.62,0.46,1.89,1.38L390.92,29.2z"/>
		<path class="st0" d="M427.28,42.43c0.09,1.96,0.39,3.65,0.91,5.08c0.52,1.43,1.21,2.62,2.08,3.56c0.87,0.95,1.9,1.65,3.11,2.11
			s2.55,0.69,4.03,0.69c1.42,0,2.64-0.16,3.68-0.49s1.94-0.69,2.7-1.08c0.76-0.39,1.42-0.75,1.96-1.08s1.04-0.49,1.49-0.49
			c0.58,0,1.04,0.23,1.35,0.68l2.06,2.67c-0.86,1.01-1.82,1.87-2.9,2.57c-1.08,0.7-2.23,1.27-3.44,1.71
			c-1.21,0.44-2.46,0.75-3.75,0.95c-1.28,0.19-2.53,0.29-3.75,0.29c-2.39,0-4.6-0.4-6.63-1.2c-2.04-0.8-3.8-1.97-5.3-3.53
			c-1.5-1.55-2.67-3.48-3.51-5.77c-0.84-2.29-1.27-4.94-1.27-7.93c0-2.39,0.38-4.61,1.13-6.68s1.83-3.87,3.24-5.4
			c1.41-1.53,3.12-2.74,5.13-3.63c2.01-0.89,4.29-1.33,6.84-1.33c2.12,0,4.07,0.34,5.87,1.03c1.8,0.69,3.35,1.69,4.66,3.02
			c1.31,1.33,2.32,2.95,3.06,4.88c0.73,1.92,1.1,4.11,1.1,6.57c0,1.13-0.12,1.88-0.37,2.26s-0.7,0.57-1.35,0.57H427.28z
			 M444.6,37.97c0-1.21-0.17-2.35-0.52-3.39c-0.35-1.05-0.86-1.96-1.54-2.73c-0.68-0.78-1.51-1.38-2.52-1.82
			c-1-0.44-2.16-0.66-3.46-0.66c-2.63,0-4.7,0.75-6.21,2.26c-1.51,1.51-2.46,3.62-2.87,6.35H444.6z"/>
		<path class="st0" d="M478.43,30.88c-0.18,0.32-0.38,0.54-0.61,0.68s-0.51,0.2-0.84,0.2c-0.38,0-0.8-0.12-1.25-0.36
			s-0.98-0.5-1.59-0.79c-0.61-0.29-1.32-0.56-2.14-0.79c-0.82-0.24-1.78-0.35-2.89-0.35c-0.9,0-1.72,0.11-2.45,0.32
			s-1.35,0.52-1.86,0.91c-0.51,0.39-0.89,0.86-1.17,1.38c-0.27,0.53-0.41,1.1-0.41,1.7c0,0.81,0.25,1.49,0.74,2.03
			c0.49,0.54,1.15,1.01,1.96,1.4c0.81,0.39,1.73,0.75,2.77,1.06c1.04,0.32,2.09,0.65,3.17,1.01c1.08,0.36,2.14,0.78,3.17,1.25
			s1.96,1.05,2.77,1.74c0.81,0.69,1.46,1.52,1.96,2.5c0.5,0.98,0.74,2.17,0.74,3.56c0,1.62-0.29,3.12-0.88,4.49
			c-0.59,1.37-1.44,2.57-2.57,3.58c-1.13,1.01-2.53,1.8-4.2,2.36c-1.68,0.56-3.6,0.84-5.76,0.84c-1.19,0-2.35-0.11-3.46-0.32
			c-1.11-0.21-2.17-0.51-3.17-0.88c-1-0.37-1.94-0.82-2.8-1.33c-0.87-0.52-1.64-1.08-2.31-1.69l1.69-2.77
			c0.2-0.34,0.46-0.6,0.76-0.79s0.68-0.29,1.13-0.29c0.47,0,0.94,0.15,1.4,0.46c0.46,0.3,1,0.64,1.62,1c0.62,0.36,1.37,0.69,2.25,1
			c0.88,0.3,1.97,0.46,3.27,0.46c1.08,0,2.01-0.13,2.8-0.39c0.79-0.26,1.44-0.61,1.96-1.06c0.52-0.45,0.9-0.96,1.15-1.54
			c0.25-0.57,0.37-1.19,0.37-1.84c0-0.88-0.25-1.6-0.74-2.16s-1.15-1.05-1.97-1.45c-0.82-0.41-1.76-0.77-2.8-1.08
			c-1.05-0.31-2.11-0.65-3.19-1.01c-1.08-0.36-2.14-0.78-3.19-1.25s-1.98-1.07-2.8-1.81c-0.82-0.73-1.48-1.62-1.97-2.67
			c-0.5-1.05-0.74-2.32-0.74-3.83c0-1.37,0.28-2.68,0.83-3.92c0.55-1.24,1.36-2.33,2.43-3.27c1.07-0.95,2.38-1.69,3.95-2.25
			c1.56-0.55,3.37-0.83,5.42-0.83c2.32,0,4.42,0.37,6.31,1.11c1.89,0.74,3.48,1.75,4.76,3.04L478.43,30.88z"/>
		<path class="st0" d="M507.9,30.88c-0.18,0.32-0.38,0.54-0.61,0.68s-0.51,0.2-0.84,0.2c-0.38,0-0.8-0.12-1.25-0.36
			s-0.98-0.5-1.59-0.79c-0.61-0.29-1.32-0.56-2.14-0.79c-0.82-0.24-1.78-0.35-2.89-0.35c-0.9,0-1.72,0.11-2.45,0.32
			s-1.35,0.52-1.86,0.91c-0.51,0.39-0.89,0.86-1.17,1.38c-0.27,0.53-0.41,1.1-0.41,1.7c0,0.81,0.25,1.49,0.74,2.03
			c0.49,0.54,1.15,1.01,1.96,1.4c0.81,0.39,1.73,0.75,2.77,1.06c1.04,0.32,2.09,0.65,3.17,1.01c1.08,0.36,2.14,0.78,3.17,1.25
			s1.96,1.05,2.77,1.74c0.81,0.69,1.46,1.52,1.96,2.5c0.5,0.98,0.74,2.17,0.74,3.56c0,1.62-0.29,3.12-0.88,4.49
			c-0.59,1.37-1.44,2.57-2.57,3.58c-1.13,1.01-2.53,1.8-4.2,2.36c-1.68,0.56-3.6,0.84-5.76,0.84c-1.19,0-2.35-0.11-3.46-0.32
			c-1.11-0.21-2.17-0.51-3.17-0.88c-1-0.37-1.94-0.82-2.8-1.33c-0.87-0.52-1.64-1.08-2.31-1.69l1.69-2.77
			c0.2-0.34,0.46-0.6,0.76-0.79s0.68-0.29,1.13-0.29c0.47,0,0.94,0.15,1.4,0.46c0.46,0.3,1,0.64,1.62,1c0.62,0.36,1.37,0.69,2.25,1
			c0.88,0.3,1.97,0.46,3.27,0.46c1.08,0,2.01-0.13,2.8-0.39c0.79-0.26,1.44-0.61,1.96-1.06c0.52-0.45,0.9-0.96,1.15-1.54
			c0.25-0.57,0.37-1.19,0.37-1.84c0-0.88-0.25-1.6-0.74-2.16s-1.15-1.05-1.97-1.45c-0.82-0.41-1.76-0.77-2.8-1.08
			c-1.05-0.31-2.11-0.65-3.19-1.01c-1.08-0.36-2.14-0.78-3.19-1.25s-1.98-1.07-2.8-1.81c-0.82-0.73-1.48-1.62-1.97-2.67
			c-0.5-1.05-0.74-2.32-0.74-3.83c0-1.37,0.28-2.68,0.83-3.92c0.55-1.24,1.36-2.33,2.43-3.27c1.07-0.95,2.38-1.69,3.95-2.25
			c1.56-0.55,3.37-0.83,5.42-0.83c2.32,0,4.42,0.37,6.31,1.11c1.89,0.74,3.48,1.75,4.76,3.04L507.9,30.88z"/>
	</g>
</g>
<g id="Layer_2">
	<g>
		<path class="st1" d="M48.18,22.4l-0.54,3.04c-0.13,0.79-0.44,1.36-0.93,1.72c-0.48,0.36-1.24,0.54-2.28,0.54h-3.98l-1.92,10.06
			h5.37c0.74,0,1.28,0.23,1.62,0.68c0.34,0.45,0.42,1.23,0.24,2.33l-0.34,2.33h-7.66l-2.7,13.98h-3.31c-0.34,0-0.66-0.08-0.96-0.24
			c-0.3-0.16-0.56-0.38-0.76-0.66s-0.34-0.61-0.42-0.98c-0.08-0.37-0.07-0.77,0.02-1.2l2.16-10.9h-7.56l-2.16,11.28
			c-0.18,0.97-0.58,1.66-1.2,2.08c-0.62,0.42-1.32,0.62-2.11,0.62h-3.21l2.7-13.98h-4.35c-0.74,0-1.28-0.23-1.62-0.69
			c-0.34-0.46-0.43-1.23-0.27-2.31l0.37-2.33h6.65l1.92-10.06h-7.49l0.54-3.04c0.13-0.79,0.44-1.36,0.93-1.72
			c0.48-0.36,1.24-0.54,2.28-0.54h4.52l2.23-11.41c0.16-0.79,0.52-1.41,1.1-1.86s1.25-0.67,2.04-0.67h3.27l-2.7,13.94h7.6l2.7-13.94
			h3.21c0.79,0,1.4,0.25,1.84,0.74c0.44,0.5,0.59,1.11,0.46,1.86L41.22,22.4H48.18z M34.5,27.7h-7.6l-1.96,10.06h7.6L34.5,27.7z"/>
		<path class="st1" d="M100.98,32.77c0,3.6-0.59,6.92-1.76,9.96c-1.17,3.04-2.82,5.65-4.95,7.85s-4.68,3.91-7.66,5.15
			c-2.98,1.24-6.3,1.86-9.94,1.86c-3.62,0-6.93-0.62-9.91-1.86c-2.98-1.24-5.54-2.95-7.68-5.15s-3.79-4.81-4.96-7.85
			c-1.17-3.04-1.76-6.36-1.76-9.96c0-3.6,0.58-6.92,1.76-9.96c1.17-3.04,2.82-5.66,4.96-7.87c2.14-2.21,4.7-3.93,7.68-5.17
			c2.98-1.24,6.28-1.86,9.91-1.86c3.65,0,6.96,0.62,9.94,1.86c2.98,1.24,5.54,2.96,7.66,5.17c2.13,2.21,3.77,4.83,4.95,7.87
			C100.39,25.85,100.98,29.17,100.98,32.77z M92.91,32.77c0-2.79-0.38-5.3-1.13-7.53c-0.75-2.23-1.83-4.12-3.24-5.67
			c-1.41-1.55-3.11-2.75-5.11-3.58c-2-0.83-4.25-1.25-6.75-1.25c-2.48,0-4.72,0.42-6.72,1.25c-2,0.83-3.71,2.03-5.13,3.58
			s-2.51,3.44-3.27,5.67c-0.77,2.23-1.15,4.74-1.15,7.53c0,2.81,0.38,5.33,1.15,7.56c0.77,2.23,1.86,4.11,3.27,5.65
			c1.42,1.54,3.13,2.72,5.13,3.54c2,0.82,4.24,1.23,6.72,1.23c2.5,0,4.75-0.41,6.75-1.23c2-0.82,3.71-2,5.11-3.54
			c1.41-1.54,2.49-3.43,3.24-5.65C92.53,38.1,92.91,35.58,92.91,32.77z"/>
		<path class="st1" d="M114.55,27.64c1.44-1.69,3.08-3.05,4.91-4.08c1.83-1.04,3.97-1.55,6.4-1.55c1.94,0,3.69,0.39,5.27,1.17
			c1.58,0.78,2.93,1.91,4.05,3.39c1.12,1.49,2,3.33,2.62,5.52c0.62,2.19,0.93,4.71,0.93,7.55c0,2.54-0.34,4.91-1.03,7.11
			s-1.67,4.1-2.95,5.71c-1.28,1.61-2.84,2.87-4.66,3.78c-1.82,0.91-3.88,1.37-6.18,1.37c-2.03,0-3.74-0.33-5.15-0.98
			c-1.41-0.65-2.68-1.55-3.83-2.7v14.62h-7.26V22.64h4.39c0.99,0,1.62,0.46,1.89,1.38L114.55,27.64z M114.92,48.43
			c1.01,1.31,2.12,2.22,3.33,2.75c1.2,0.53,2.54,0.79,4,0.79c2.84,0,5.05-1.04,6.63-3.11c1.59-2.07,2.38-5.15,2.38-9.25
			c0-2.12-0.18-3.92-0.54-5.42c-0.36-1.5-0.88-2.72-1.55-3.66s-1.5-1.63-2.46-2.06c-0.97-0.43-2.06-0.64-3.27-0.64
			c-1.85,0-3.44,0.4-4.78,1.2c-1.34,0.8-2.58,1.94-3.73,3.43V48.43z"/>
		<path class="st1" d="M151.04,40.43c0.09,1.96,0.39,3.65,0.91,5.08c0.52,1.43,1.21,2.62,2.08,3.56c0.87,0.95,1.9,1.65,3.11,2.11
			s2.55,0.69,4.03,0.69c1.42,0,2.64-0.16,3.68-0.49c1.03-0.33,1.94-0.69,2.7-1.08c0.76-0.39,1.42-0.75,1.96-1.08
			s1.03-0.49,1.49-0.49c0.58,0,1.04,0.23,1.35,0.68l2.06,2.67c-0.86,1.01-1.82,1.87-2.9,2.57c-1.08,0.7-2.23,1.27-3.44,1.71
			c-1.22,0.44-2.46,0.75-3.75,0.95c-1.28,0.19-2.53,0.29-3.75,0.29c-2.39,0-4.6-0.4-6.63-1.2c-2.04-0.8-3.8-1.97-5.3-3.53
			s-2.67-3.48-3.51-5.77c-0.84-2.29-1.27-4.94-1.27-7.93c0-2.39,0.38-4.61,1.13-6.68s1.83-3.87,3.24-5.4
			c1.41-1.53,3.12-2.74,5.13-3.63c2.01-0.89,4.29-1.33,6.84-1.33c2.12,0,4.07,0.34,5.87,1.03c1.8,0.69,3.35,1.69,4.66,3.02
			c1.31,1.33,2.32,2.95,3.06,4.88c0.73,1.92,1.1,4.11,1.1,6.57c0,1.13-0.12,1.88-0.37,2.26c-0.25,0.38-0.7,0.57-1.35,0.57H151.04z
			 M168.36,35.97c0-1.21-0.17-2.35-0.52-3.39c-0.35-1.05-0.86-1.96-1.54-2.73c-0.68-0.78-1.51-1.38-2.52-1.82
			c-1-0.44-2.16-0.66-3.46-0.66c-2.63,0-4.7,0.75-6.21,2.26c-1.51,1.51-2.46,3.62-2.87,6.35H168.36z"/>
		<path class="st1" d="M188.41,27.2c0.74-0.76,1.51-1.46,2.31-2.08s1.65-1.15,2.55-1.6c0.9-0.45,1.86-0.8,2.87-1.05
			c1.01-0.25,2.12-0.37,3.31-0.37c1.89,0,3.55,0.32,4.98,0.95c1.43,0.63,2.63,1.52,3.61,2.67c0.98,1.15,1.72,2.53,2.21,4.14
			c0.49,1.61,0.74,3.38,0.74,5.32v21.91h-7.22V35.16c0-2.32-0.53-4.12-1.6-5.4c-1.07-1.28-2.7-1.92-4.88-1.92
			c-1.62,0-3.12,0.37-4.51,1.11c-1.38,0.74-2.68,1.76-3.9,3.04v25.08h-7.26V22.64h4.39c0.99,0,1.62,0.46,1.89,1.38L188.41,27.2z"/>
		<path class="st2" d="M252.45,39.11v4.19c0,0.4-0.13,0.75-0.39,1.05c-0.26,0.29-0.65,0.44-1.16,0.44h-5.17v12.29h-6.31V44.79
			h-21.03c-0.52,0-0.96-0.15-1.33-0.46c-0.37-0.3-0.61-0.68-0.73-1.13l-0.74-3.71l23.33-31.06h6.82v30.69H252.45z M239.42,39.11
			V21.36c0-1.42,0.1-2.97,0.3-4.66l-16.34,22.42H239.42z"/>
		<path class="st2" d="M276.18,8.46c3.11,0,5.76,0.3,7.97,0.89c2.21,0.6,4.02,1.45,5.44,2.55c1.42,1.1,2.46,2.45,3.12,4.03
			c0.66,1.59,1,3.37,1,5.35c0,1.15-0.17,2.26-0.52,3.33c-0.35,1.07-0.89,2.07-1.62,3c-0.73,0.93-1.65,1.77-2.75,2.52
			c-1.1,0.74-2.41,1.36-3.92,1.86c6.89,1.46,10.33,5.12,10.33,10.97c0,2.07-0.39,3.97-1.17,5.69c-0.78,1.72-1.9,3.21-3.38,4.46
			c-1.47,1.25-3.29,2.22-5.45,2.92c-2.16,0.7-4.62,1.05-7.39,1.05h-17.82V8.46H276.18z M267.91,14.64v15.19h7.9
			c3.38,0,5.9-0.65,7.56-1.96c1.67-1.3,2.5-3.18,2.5-5.64c0-2.68-0.78-4.61-2.35-5.81c-1.56-1.19-4.01-1.79-7.34-1.79H267.91z
			 M277.7,50.83c1.78,0,3.28-0.21,4.51-0.62c1.23-0.42,2.23-0.98,3-1.71c0.78-0.72,1.34-1.57,1.69-2.55
			c0.35-0.98,0.52-2.03,0.52-3.16c0-2.3-0.78-4.1-2.35-5.42c-1.56-1.32-4.03-1.98-7.41-1.98h-9.76v15.43H277.7z"/>
		<path class="st2" d="M331.11,22.64v34.43h-4.39c-0.97,0-1.59-0.46-1.86-1.38l-0.54-3.21c-0.72,0.76-1.48,1.46-2.28,2.09
			s-1.65,1.17-2.55,1.62s-1.86,0.8-2.89,1.05s-2.12,0.37-3.29,0.37c-1.89,0-3.56-0.32-5-0.95c-1.44-0.63-2.65-1.52-3.63-2.67
			c-0.98-1.15-1.72-2.53-2.21-4.14c-0.49-1.61-0.74-3.38-0.74-5.32V22.64H309v21.91c0,2.32,0.54,4.12,1.6,5.4
			c1.07,1.28,2.7,1.92,4.88,1.92c1.6,0,3.09-0.37,4.47-1.1c1.38-0.73,2.68-1.74,3.9-3.02V22.64H331.11z"/>
		<path class="st2" d="M360.51,28.88c-0.18,0.32-0.38,0.54-0.61,0.68s-0.51,0.2-0.84,0.2c-0.38,0-0.8-0.12-1.25-0.36
			s-0.98-0.5-1.59-0.79c-0.61-0.29-1.32-0.56-2.14-0.79c-0.82-0.24-1.78-0.35-2.89-0.35c-0.9,0-1.72,0.11-2.45,0.32
			s-1.35,0.52-1.86,0.91c-0.51,0.39-0.89,0.86-1.17,1.38c-0.27,0.53-0.41,1.1-0.41,1.7c0,0.81,0.25,1.49,0.74,2.03
			c0.49,0.54,1.15,1.01,1.96,1.4c0.81,0.39,1.73,0.75,2.77,1.06c1.04,0.32,2.09,0.65,3.17,1.01c1.08,0.36,2.14,0.78,3.17,1.25
			s1.96,1.05,2.77,1.74c0.81,0.69,1.46,1.52,1.96,2.5c0.5,0.98,0.74,2.17,0.74,3.56c0,1.62-0.29,3.12-0.88,4.49
			c-0.59,1.37-1.44,2.57-2.57,3.58c-1.13,1.01-2.53,1.8-4.2,2.36c-1.68,0.56-3.6,0.84-5.76,0.84c-1.19,0-2.35-0.11-3.46-0.32
			c-1.11-0.21-2.17-0.51-3.17-0.88c-1-0.37-1.94-0.82-2.8-1.33c-0.87-0.52-1.64-1.08-2.31-1.69l1.69-2.77
			c0.2-0.34,0.46-0.6,0.76-0.79s0.68-0.29,1.13-0.29c0.47,0,0.94,0.15,1.4,0.46c0.46,0.3,1,0.64,1.62,1c0.62,0.36,1.37,0.69,2.25,1
			c0.88,0.3,1.97,0.46,3.27,0.46c1.08,0,2.01-0.13,2.8-0.39c0.79-0.26,1.44-0.61,1.96-1.06c0.52-0.45,0.9-0.96,1.15-1.54
			c0.25-0.57,0.37-1.19,0.37-1.84c0-0.88-0.25-1.6-0.74-2.16s-1.15-1.05-1.97-1.45c-0.82-0.41-1.76-0.77-2.8-1.08
			c-1.05-0.31-2.11-0.65-3.19-1.01c-1.08-0.36-2.14-0.78-3.19-1.25s-1.98-1.07-2.8-1.81c-0.82-0.73-1.48-1.62-1.97-2.67
			c-0.5-1.05-0.74-2.32-0.74-3.83c0-1.37,0.28-2.68,0.83-3.92c0.55-1.24,1.36-2.33,2.43-3.27c1.07-0.95,2.38-1.69,3.95-2.25
			c1.56-0.55,3.37-0.83,5.42-0.83c2.32,0,4.42,0.37,6.31,1.11c1.89,0.74,3.48,1.75,4.76,3.04L360.51,28.88z"/>
		<path class="st2" d="M378.21,12.24c0,0.65-0.13,1.27-0.39,1.86s-0.61,1.1-1.06,1.54c-0.45,0.44-0.97,0.79-1.57,1.05
			c-0.6,0.26-1.23,0.39-1.91,0.39c-0.65,0-1.27-0.13-1.84-0.39c-0.57-0.26-1.07-0.61-1.5-1.05c-0.43-0.44-0.77-0.95-1.03-1.54
			c-0.26-0.58-0.39-1.2-0.39-1.86c0-0.67,0.13-1.3,0.39-1.89c0.26-0.58,0.6-1.1,1.03-1.54c0.43-0.44,0.93-0.79,1.5-1.05
			c0.57-0.26,1.19-0.39,1.84-0.39c0.67,0,1.31,0.13,1.91,0.39c0.6,0.26,1.12,0.61,1.57,1.05c0.45,0.44,0.8,0.95,1.06,1.54
			S378.21,11.57,378.21,12.24z M376.99,22.64v34.43h-7.26V22.64H376.99z"/>
		<path class="st2" d="M392.92,27.2c0.74-0.76,1.51-1.46,2.31-2.08s1.65-1.15,2.55-1.6s1.86-0.8,2.87-1.05
			c1.01-0.25,2.12-0.37,3.31-0.37c1.89,0,3.55,0.32,4.98,0.95c1.43,0.63,2.63,1.52,3.61,2.67c0.98,1.15,1.72,2.53,2.21,4.14
			c0.49,1.61,0.74,3.38,0.74,5.32v21.91h-7.22V35.16c0-2.32-0.54-4.12-1.6-5.4c-1.07-1.28-2.7-1.92-4.88-1.92
			c-1.62,0-3.12,0.37-4.51,1.11c-1.38,0.74-2.68,1.76-3.9,3.04v25.08h-7.26V22.64h4.39c0.99,0,1.62,0.46,1.89,1.38L392.92,27.2z"/>
		<path class="st2" d="M429.28,40.43c0.09,1.96,0.39,3.65,0.91,5.08c0.52,1.43,1.21,2.62,2.08,3.56c0.87,0.95,1.9,1.65,3.11,2.11
			s2.55,0.69,4.03,0.69c1.42,0,2.64-0.16,3.68-0.49s1.94-0.69,2.7-1.08c0.76-0.39,1.42-0.75,1.96-1.08s1.04-0.49,1.49-0.49
			c0.58,0,1.04,0.23,1.35,0.68l2.06,2.67c-0.86,1.01-1.82,1.87-2.9,2.57c-1.08,0.7-2.23,1.27-3.44,1.71
			c-1.21,0.44-2.46,0.75-3.75,0.95c-1.28,0.19-2.53,0.29-3.75,0.29c-2.39,0-4.6-0.4-6.63-1.2c-2.04-0.8-3.8-1.97-5.3-3.53
			c-1.5-1.55-2.67-3.48-3.51-5.77c-0.84-2.29-1.27-4.94-1.27-7.93c0-2.39,0.38-4.61,1.13-6.68s1.83-3.87,3.24-5.4
			c1.41-1.53,3.12-2.74,5.13-3.63c2.01-0.89,4.29-1.33,6.84-1.33c2.12,0,4.07,0.34,5.87,1.03c1.8,0.69,3.35,1.69,4.66,3.02
			c1.31,1.33,2.32,2.95,3.06,4.88c0.73,1.92,1.1,4.11,1.1,6.57c0,1.13-0.12,1.88-0.37,2.26s-0.7,0.57-1.35,0.57H429.28z
			 M446.6,35.97c0-1.21-0.17-2.35-0.52-3.39c-0.35-1.05-0.86-1.96-1.54-2.73c-0.68-0.78-1.51-1.38-2.52-1.82
			c-1-0.44-2.16-0.66-3.46-0.66c-2.63,0-4.7,0.75-6.21,2.26s-2.46,3.62-2.87,6.35H446.6z"/>
		<path class="st2" d="M480.43,28.88c-0.18,0.32-0.38,0.54-0.61,0.68s-0.51,0.2-0.84,0.2c-0.38,0-0.8-0.12-1.25-0.36
			s-0.98-0.5-1.59-0.79c-0.61-0.29-1.32-0.56-2.14-0.79c-0.82-0.24-1.78-0.35-2.89-0.35c-0.9,0-1.72,0.11-2.45,0.32
			s-1.35,0.52-1.86,0.91c-0.51,0.39-0.89,0.86-1.17,1.38c-0.27,0.53-0.41,1.1-0.41,1.7c0,0.81,0.25,1.49,0.74,2.03
			c0.49,0.54,1.15,1.01,1.96,1.4c0.81,0.39,1.73,0.75,2.77,1.06c1.04,0.32,2.09,0.65,3.17,1.01c1.08,0.36,2.14,0.78,3.17,1.25
			s1.96,1.05,2.77,1.74c0.81,0.69,1.46,1.52,1.96,2.5c0.5,0.98,0.74,2.17,0.74,3.56c0,1.62-0.29,3.12-0.88,4.49
			c-0.59,1.37-1.44,2.57-2.57,3.58c-1.13,1.01-2.53,1.8-4.2,2.36c-1.68,0.56-3.6,0.84-5.76,0.84c-1.19,0-2.35-0.11-3.46-0.32
			c-1.11-0.21-2.17-0.51-3.17-0.88c-1-0.37-1.94-0.82-2.8-1.33c-0.87-0.52-1.64-1.08-2.31-1.69l1.69-2.77
			c0.2-0.34,0.46-0.6,0.76-0.79s0.68-0.29,1.13-0.29c0.47,0,0.94,0.15,1.4,0.46c0.46,0.3,1,0.64,1.62,1c0.62,0.36,1.37,0.69,2.25,1
			c0.88,0.3,1.97,0.46,3.27,0.46c1.08,0,2.01-0.13,2.8-0.39c0.79-0.26,1.44-0.61,1.96-1.06c0.52-0.45,0.9-0.96,1.15-1.54
			c0.25-0.57,0.37-1.19,0.37-1.84c0-0.88-0.25-1.6-0.74-2.16s-1.15-1.05-1.97-1.45c-0.82-0.41-1.76-0.77-2.8-1.08
			c-1.05-0.31-2.11-0.65-3.19-1.01c-1.08-0.36-2.14-0.78-3.19-1.25s-1.98-1.07-2.8-1.81c-0.82-0.73-1.48-1.62-1.97-2.67
			c-0.5-1.05-0.74-2.32-0.74-3.83c0-1.37,0.28-2.68,0.83-3.92c0.55-1.24,1.36-2.33,2.43-3.27c1.07-0.95,2.38-1.69,3.95-2.25
			c1.56-0.55,3.37-0.83,5.42-0.83c2.32,0,4.42,0.37,6.31,1.11c1.89,0.74,3.48,1.75,4.76,3.04L480.43,28.88z"/>
		<path class="st2" d="M509.9,28.88c-0.18,0.32-0.38,0.54-0.61,0.68s-0.51,0.2-0.84,0.2c-0.38,0-0.8-0.12-1.25-0.36
			s-0.98-0.5-1.59-0.79c-0.61-0.29-1.32-0.56-2.14-0.79c-0.82-0.24-1.78-0.35-2.89-0.35c-0.9,0-1.72,0.11-2.45,0.32
			s-1.35,0.52-1.86,0.91c-0.51,0.39-0.89,0.86-1.17,1.38c-0.27,0.53-0.41,1.1-0.41,1.7c0,0.81,0.25,1.49,0.74,2.03
			c0.49,0.54,1.15,1.01,1.96,1.4c0.81,0.39,1.73,0.75,2.77,1.06c1.04,0.32,2.09,0.65,3.17,1.01c1.08,0.36,2.14,0.78,3.17,1.25
			s1.96,1.05,2.77,1.74c0.81,0.69,1.46,1.52,1.96,2.5c0.5,0.98,0.74,2.17,0.74,3.56c0,1.62-0.29,3.12-0.88,4.49
			c-0.59,1.37-1.44,2.57-2.57,3.58c-1.13,1.01-2.53,1.8-4.2,2.36c-1.68,0.56-3.6,0.84-5.76,0.84c-1.19,0-2.35-0.11-3.46-0.32
			c-1.11-0.21-2.17-0.51-3.17-0.88c-1-0.37-1.94-0.82-2.8-1.33c-0.87-0.52-1.64-1.08-2.31-1.69l1.69-2.77
			c0.2-0.34,0.46-0.6,0.76-0.79s0.68-0.29,1.13-0.29c0.47,0,0.94,0.15,1.4,0.46c0.46,0.3,1,0.64,1.62,1c0.62,0.36,1.37,0.69,2.25,1
			c0.88,0.3,1.97,0.46,3.27,0.46c1.08,0,2.01-0.13,2.8-0.39c0.79-0.26,1.44-0.61,1.96-1.06c0.52-0.45,0.9-0.96,1.15-1.54
			c0.25-0.57,0.37-1.19,0.37-1.84c0-0.88-0.25-1.6-0.74-2.16s-1.15-1.05-1.97-1.45c-0.82-0.41-1.76-0.77-2.8-1.08
			c-1.05-0.31-2.11-0.65-3.19-1.01c-1.08-0.36-2.14-0.78-3.19-1.25s-1.98-1.07-2.8-1.81c-0.82-0.73-1.48-1.62-1.97-2.67
			c-0.5-1.05-0.74-2.32-0.74-3.83c0-1.37,0.28-2.68,0.83-3.92c0.55-1.24,1.36-2.33,2.43-3.27c1.07-0.95,2.38-1.69,3.95-2.25
			c1.56-0.55,3.37-0.83,5.42-0.83c2.32,0,4.42,0.37,6.31,1.11c1.89,0.74,3.48,1.75,4.76,3.04L509.9,28.88z"/>
	</g>
</g>
</svg>
