<?xml version="1.0" encoding="UTF-8"?>
<svg width="41px" height="41px" viewBox="0 0 41 41" version="1.1" xmlns="http://www.w3.org/2000/svg" xmlns:xlink="http://www.w3.org/1999/xlink">
    <!-- Generator: sketchtool 63.1 (101010) - https://sketch.com -->
    <title>4CE406ED-9EBD-4008-B165-BAA75D8D8544</title>
    <desc>Created with sketchtool.</desc>
    <g id="OPEN4BUSINESS" stroke="none" stroke-width="1" fill="none" fill-rule="evenodd">
        <g id="ANIMALAR.1_Entrada_01" transform="translate(-699.000000, -1635.000000)" fill="#FFFFFF" fill-rule="nonzero">
            <g id="main/footer" transform="translate(0.000000, 1587.000000)">
                <g id="Group-4" transform="translate(576.000000, 48.000000)">
                    <path d="M143.5,41 C154.821837,41 164,31.8218374 164,20.5 C164,9.17816263 154.821837,0 143.5,0 C132.178163,0 123,9.17816263 123,20.5 C123,31.8218374 132.178163,41 143.5,41 Z M144.215626,14.8674892 L144.215626,17.6069607 L148.059501,17.6069607 L148.059501,19.9435687 L144.215626,19.9435687 L144.215626,29.2900009 L141.353167,29.2900009 L141.353167,19.9435687 L138,19.9435687 L138,17.6069607 L141.353167,17.6069607 L141.353167,14.384053 C141.353167,12.5308811 142.825289,11 144.624549,11 L148.059501,11 L148.059501,13.4977534 L145.442395,13.4977534 C144.788118,13.4977534 144.215626,14.142335 144.215626,14.8674892 Z" id="icons/facebook"></path>
                </g>
            </g>
        </g>
    </g>
</svg>