<?xml version="1.0" encoding="UTF-8"?>
<svg width="41px" height="41px" viewBox="0 0 41 41" version="1.1" xmlns="http://www.w3.org/2000/svg" xmlns:xlink="http://www.w3.org/1999/xlink">
    <!-- Generator: sketchtool 63.1 (101010) - https://sketch.com -->
    <title>D2E5B8F2-C58F-4F7A-B662-200089B0A073</title>
    <desc>Created with sketchtool.</desc>
    <g id="OPEN4BUSINESS" stroke="none" stroke-width="1" fill="none" fill-rule="evenodd">
        <g id="ANIMALAR.1_Entrada_01" transform="translate(-761.000000, -1635.000000)" fill="#FFFFFF" fill-rule="nonzero">
            <g id="main/footer" transform="translate(0.000000, 1587.000000)">
                <g id="Group-4" transform="translate(576.000000, 48.000000)">
                    <path d="M205.5,41 C216.821837,41 226,31.8218374 226,20.5 C226,9.17816263 216.821837,0 205.5,0 C194.178163,0 185,9.17816263 185,20.5 C185,31.8218374 194.178163,41 205.5,41 Z M205.472832,30.9977989 C203.399564,30.9977989 201.326296,31.0037305 199.25308,30.9961192 C197.183172,30.9885079 195.494406,29.6175832 195.089222,27.6172834 C195.028909,27.3196557 195.00513,27.0099024 195.004763,26.7056607 C194.999409,22.5679529 194.998569,18.4302452 195.002243,14.2925374 C195.004133,12.1981726 196.360416,10.5052115 198.369014,10.0926271 C198.674831,10.0297946 198.993613,10.0053859 199.306412,10.0049135 C203.435416,9.9993494 207.564419,9.99861451 211.693371,10.0021839 C214.158122,10.0042836 215.993917,11.8336705 215.996595,14.2933773 C216.001109,18.4310851 216.001161,22.5688453 215.996595,26.706553 C215.993865,29.1658399 214.157545,30.9929172 211.692531,30.9971165 C209.619315,31.0006334 207.546047,30.9978514 205.472832,30.9977989 L205.472832,30.9977989 Z M211.737516,18.9293359 C212.155351,20.9121035 211.848956,22.7393382 210.622433,24.3591784 C209.393653,25.9819056 207.742209,26.8562593 205.709937,26.9394061 C203.87178,27.0146266 202.262959,26.395015 200.959903,25.0958989 C199.240377,23.3815737 198.71378,21.2949776 199.197177,18.9309107 L197.405264,18.9309107 L197.405264,19.2037623 C197.405264,21.8368491 197.420907,24.4700933 197.396551,27.1029176 C197.38831,27.9888719 198.016426,28.5809253 198.864169,28.5785107 C203.264292,28.5659652 207.664469,28.5730516 212.064645,28.5723692 C212.998579,28.5722642 213.53452,28.0401037 213.534782,27.1136784 C213.535517,24.4805916 213.535045,21.8475049 213.535045,19.2144181 L213.535045,18.9293359 L211.737516,18.9293359 L211.737516,18.9293359 Z M209.518111,20.4919602 C209.507193,18.2479416 207.68809,16.4431208 205.448895,16.454669 C203.221512,16.4661122 201.407343,18.28983 201.417736,20.5070778 C201.428287,22.7471595 203.252219,24.5553922 205.490312,24.5444215 C207.718535,24.5335557 209.528924,22.712095 209.518111,20.4919602 L209.518111,20.4919602 Z M213.534205,14.4919533 C213.534205,14.2471322 213.538667,14.0021536 213.533365,13.757385 C213.517933,13.0406638 212.962412,12.4792655 212.247736,12.4666675 C211.758198,12.4580063 211.26824,12.4580063 210.778649,12.466615 C210.06644,12.4791605 209.503833,13.0431309 209.491078,13.7578574 C209.482312,14.2473946 209.481314,14.7374568 209.49176,15.2269415 C209.506668,15.9241883 210.070062,16.4909932 210.765946,16.5068982 C211.264145,16.5182889 211.763027,16.5184464 212.261227,16.5069507 C212.960575,16.4907833 213.515623,15.9263929 213.532945,15.2265216 C213.538982,14.9818055 213.53389,14.7368269 213.534205,14.4919533 L213.534205,14.4919533 Z" id="icons/instagram"></path>
                </g>
            </g>
        </g>
    </g>
</svg>