<?xml version="1.0" encoding="UTF-8"?>
<svg width="41px" height="41px" viewBox="0 0 41 41" version="1.1" xmlns="http://www.w3.org/2000/svg" xmlns:xlink="http://www.w3.org/1999/xlink">
    <!-- Generator: sketchtool 63.1 (101010) - https://sketch.com -->
    <title>6D6DEB86-4CCE-4090-B068-F41B8FC0890D</title>
    <desc>Created with sketchtool.</desc>
    <g id="OPEN4BUSINESS" stroke="none" stroke-width="1" fill="none" fill-rule="evenodd">
        <g id="ANIMALAR.1_Entrada_01" transform="translate(-822.000000, -1635.000000)" fill="#FFFFFF">
            <g id="main/footer" transform="translate(0.000000, 1587.000000)">
                <g id="Group-4" transform="translate(576.000000, 48.000000)">
                    <path d="M257.857422,27.9309896 L261.617188,27.9309896 L261.617188,16.6354167 L257.857422,16.6354167 L257.857422,27.9309896 Z M261.861328,13.1523438 C261.850477,12.5881048 261.655167,12.1215296 261.275391,11.7526042 C260.895614,11.3836787 260.391062,11.1992188 259.761719,11.1992188 C259.132375,11.1992188 258.619685,11.3836787 258.223633,11.7526042 C257.82758,12.1215296 257.629557,12.5881048 257.629557,13.1523438 C257.629557,13.7057319 257.822155,14.1695945 258.207357,14.5439453 C258.592558,14.9182961 259.094398,15.1054688 259.712891,15.1054688 L259.729167,15.1054688 C260.369361,15.1054688 260.884764,14.9182961 261.275391,14.5439453 C261.666018,14.1695945 261.861328,13.7057319 261.861328,13.1523438 Z M267.44401,18.2277823 L267.44401,16.6354167 L263.684245,16.6354167 C263.716797,17.3515661 263.716797,21.1167194 263.684245,27.9309896 L267.44401,27.9309896 L267.44401,21.6158854 C267.44401,21.203557 267.481987,20.8997406 267.557943,20.7044271 C267.720704,20.3246509 267.964842,20.0018459 268.290365,19.7360026 C268.615887,19.4701593 269.017359,19.3372396 269.494792,19.3372396 C270.753479,19.3372396 271.382812,20.1890106 271.382812,21.8925781 L271.382812,27.9309896 L275.142578,27.9309896 L275.142578,21.453125 C275.142578,19.7821097 274.746532,18.5180164 273.954427,17.6608073 C273.162322,16.8035981 272.115241,16.375 270.813151,16.375 C269.357546,16.375 268.23451,16.992588 267.44401,18.2277823 L267.44401,18.2277823 Z M266.5,0 C277.821837,0 287,9.17816263 287,20.5 C287,31.8218374 277.821837,41 266.5,41 C255.178163,41 246,31.8218374 246,20.5 C246,9.17816263 255.178163,0 266.5,0 Z" id="icons/LinkedIn"></path>
                </g>
            </g>
        </g>
    </g>
</svg>