<?xml version="1.0" encoding="UTF-8"?>
<svg width="41px" height="41px" viewBox="0 0 41 41" version="1.1" xmlns="http://www.w3.org/2000/svg" xmlns:xlink="http://www.w3.org/1999/xlink">
    <!-- Generator: sketchtool 63.1 (101010) - https://sketch.com -->
    <title>37835D8B-5AF0-42AE-834A-CBDA6909C6D9</title>
    <desc>Created with sketchtool.</desc>
    <g id="OPEN4BUSINESS" stroke="none" stroke-width="1" fill="none" fill-rule="evenodd">
        <g id="ANIMALAR.1_Entrada_01" transform="translate(-638.000000, -1635.000000)" fill="#FFFFFF">
            <g id="main/footer" transform="translate(0.000000, 1587.000000)">
                <g id="Group-4" transform="translate(576.000000, 48.000000)">
                    <path d="M82.5,0 C93.8218374,0 103,9.17816263 103,20.5 C103,31.8218374 93.8218374,41 82.5,41 C71.1781626,41 62,31.8218374 62,20.5 C62,9.17816263 71.1781626,0 82.5,0 Z M87.7319004,13 C85.3209088,13 83.3662442,14.9396118 83.3662442,17.3319774 C83.3662442,17.6715041 83.4049266,18.0021487 83.4793337,18.3191999 C79.8511326,18.1385463 76.6344276,16.4138806 74.4812923,13.7929755 C74.105521,14.4327933 73.8902386,15.1769561 73.8902386,15.9708585 C73.8902386,17.4737815 74.6610056,18.7997583 75.8323722,19.5765917 C75.1167101,19.5541162 74.4436218,19.3592514 73.8549809,19.0347856 L73.8546696,19.0892365 L73.8546696,19.0892365 C73.8546696,21.1881849 75.359467,22.9391107 77.3565498,23.3370273 C76.9901961,23.4360431 76.6045402,23.4889493 76.2063534,23.4889493 C75.9250698,23.4889493 75.6515693,23.4618397 75.3850736,23.4112505 C75.9405583,25.1323635 77.5527634,26.3848122 79.4630639,26.4197999 C77.9690072,27.5816515 76.0866483,28.2742211 74.0413877,28.2742211 C73.6890438,28.2742211 73.3415254,28.2537537 73,28.2137458 C74.9319377,29.4428694 77.2266487,30.1599998 79.6919668,30.1599998 C87.7217044,30.1599998 92.1126558,23.5589246 92.1126558,17.8343162 C92.1126558,17.6464798 92.1084529,17.4596475 92.1000471,17.2738964 C92.9529265,16.6631191 93.6931057,15.9001109 94.2783998,15.0313674 C93.4954911,15.3759144 92.6541307,15.6087791 91.7710526,15.7135102 C92.6724212,15.1773423 93.3645782,14.3283711 93.6905372,13.3168195 C92.8470754,13.8132112 91.9127841,14.1737459 90.9184067,14.3680701 C90.1220331,13.5261273 88.9874808,13 87.7319004,13 Z" id="icons/twitter"></path>
                </g>
            </g>
        </g>
    </g>
</svg>