<?xml version="1.0" encoding="UTF-8"?>
<svg width="41px" height="41px" viewBox="0 0 41 41" version="1.1" xmlns="http://www.w3.org/2000/svg" xmlns:xlink="http://www.w3.org/1999/xlink">
    <!-- Generator: sketchtool 63.1 (101010) - https://sketch.com -->
    <title>83CA562F-3453-4C3C-984D-250095B1A6F3</title>
    <desc>Created with sketchtool.</desc>
    <g id="OPEN4BUSINESS" stroke="none" stroke-width="1" fill="none" fill-rule="evenodd">
        <g id="ANIMALAR.1_Entrada_01" transform="translate(-576.000000, -1635.000000)" fill="#FFFFFF">
            <g id="main/footer" transform="translate(0.000000, 1587.000000)">
                <g id="Group-4" transform="translate(576.000000, 48.000000)">
                    <path d="M20.5,41 C31.8218374,41 41,31.8218374 41,20.5 C41,9.17816263 31.8218374,0 20.5,0 C9.17816263,0 0,9.17816263 0,20.5 C0,31.8218374 9.17816263,41 20.5,41 Z M14.125,26 C13.6093724,26 13.1679706,25.8164081 12.8007812,25.4492188 C12.4335919,25.0820294 12.25,24.6406276 12.25,24.125 L12.25,15.875 C12.25,15.3593724 12.4335919,14.9179706 12.8007812,14.5507812 C13.1679706,14.1835919 13.6093724,14 14.125,14 L26.875,14 C27.3906276,14 27.8320294,14.1835919 28.1992188,14.5507812 C28.5664081,14.9179706 28.75,15.3593724 28.75,15.875 L28.75,24.125 C28.75,24.6406276 28.5664081,25.0820294 28.1992188,25.4492188 C27.8320294,25.8164081 27.3906276,26 26.875,26 L14.125,26 Z M13.75,15.875 L13.75,24.125 C13.75,24.226563 13.787109,24.3144528 13.8613281,24.3886719 C13.9355472,24.462891 14.023437,24.5 14.125,24.5 L26.875,24.5 C26.976563,24.5 27.0644528,24.462891 27.1386719,24.3886719 C27.212891,24.3144528 27.25,24.226563 27.25,24.125 L27.25,15.875 C27.25,15.773437 27.212891,15.6855472 27.1386719,15.6113281 C27.0644528,15.537109 26.976563,15.5 26.875,15.5 L14.125,15.5 C14.023437,15.5 13.9355472,15.537109 13.8613281,15.6113281 C13.787109,15.6855472 13.75,15.773437 13.75,15.875 Z M9.25,26.75 L31.75,26.75 L31.75,27.875 C31.75,28.1875016 31.5664081,28.4531239 31.1992188,28.671875 C30.8320294,28.8906261 30.3906276,29 29.875,29 L11.125,29 C10.6093724,29 10.1679706,28.8906261 9.80078125,28.671875 C9.43359191,28.4531239 9.25,28.1875016 9.25,27.875 L9.25,26.75 Z M21.4375,27.875 C21.5625006,27.875 21.625,27.8125006 21.625,27.6875 C21.625,27.5624994 21.5625006,27.5 21.4375,27.5 L19.5625,27.5 C19.4374994,27.5 19.375,27.5624994 19.375,27.6875 C19.375,27.8125006 19.4374994,27.875 19.5625,27.875 L21.4375,27.875 Z" id="icons/website"></path>
                </g>
            </g>
        </g>
    </g>
</svg>