<?xml version="1.0" encoding="UTF-8"?>
<svg width="164px" height="50px" viewBox="0 0 164 50" version="1.1" xmlns="http://www.w3.org/2000/svg" xmlns:xlink="http://www.w3.org/1999/xlink">
    <!-- Generator: sketchtool 63.1 (101010) - https://sketch.com -->
    <title>3FCF2C1D-A13C-4AB5-B73D-D0E1B9617424</title>
    <desc>Created with sketchtool.</desc>
    <g id="OPEN4BUSINESS" stroke="none" stroke-width="1" fill="none" fill-rule="evenodd">
        <g id="ANIMALAR.1_Entrada_01_Active" transform="translate(-468.000000, -1635.000000)" fill="#FFFFFF">
            <g id="main/footer" transform="translate(0.000000, 1587.000000)">
                <g id="Group" transform="translate(468.000000, 48.000000)">
                    <g id="Group-13" transform="translate(0.000000, 0.000000)">
                        <path d="M126.217341,31.2155692 C126.974898,31.2155692 127.871414,31.1831613 128.907531,31.1164844 C129.944288,31.0498717 130.714011,30.8497126 131.218622,30.516649 C131.817367,30.1309626 132.116419,29.3859012 132.116419,28.2790904 C132.116419,27.6270815 132.029969,27.0878265 131.85771,26.6617746 C131.525359,25.9294838 130.741547,25.4438142 129.504995,25.2039314 C128.708376,25.0564593 127.612065,24.98375 126.217341,24.98375 L126.217341,31.2155692 Z M125.917008,36.6486775 L125.917008,49.3720926 L119.958376,49.3720926 L119.958376,19.3711468 L127.751025,19.3711468 C129.850794,19.3711468 131.432505,19.4908315 132.494237,19.7307143 C133.066726,19.8776088 133.564293,20.0435631 133.989498,20.2301814 C134.070184,20.2570061 134.291752,20.3737388 134.657403,20.5798019 C135.023053,20.78625 135.245261,20.9225558 135.325948,20.988591 C135.856814,21.415798 136.308914,21.848139 136.680968,22.2877316 C137.903432,23.8587137 138.514344,25.7368331 138.514344,27.9197154 C138.514344,28.2790904 138.501537,28.6470006 138.474001,29.0181194 C138.235143,31.6952065 137.185579,33.7062946 135.325948,35.0512556 C134.608735,35.5712584 133.846696,35.937115 133.043673,36.1488895 C132.23873,36.3627818 131.385758,36.5022321 130.482198,36.568909 C129.79124,36.6093387 129.043289,36.6325698 128.240907,36.6386663 C127.435323,36.6457254 126.663038,36.6486775 125.917008,36.6486775 L125.917008,36.6486775 Z" id="Fill-1"></path>
                        <polygon id="Fill-2" points="155.875384 24.9442829 155.875384 49.3720926 149.636911 49.3720926 149.636911 24.9442829 142.102331 24.9442829 143.357454 19.3710826 162.113217 19.3710826 163.369621 24.9442829"></polygon>
                        <path d="M67.6933914,39.5982478 C67.9021516,40.1209459 68.0596824,40.5717048 68.2594775,41.0014788 C68.7800973,42.1264509 69.470415,43.1075446 70.7261783,43.4912416 C71.9159836,43.8549805 73.1179559,43.9438616 74.3109631,43.4689732 C75.4296875,43.0250809 76.0726178,42.223418 76.2365523,41.0115541 C76.418417,39.6669782 75.8926742,38.6538616 74.7841957,37.9906222 C73.3907531,37.1566797 71.940958,36.4173298 70.5084529,35.6500642 C68.8396516,34.7554771 67.2848361,33.7042411 65.9003586,32.4068973 C64.579918,31.169043 63.8583504,29.6654436 63.7020364,27.843284 C63.5216445,25.7368973 63.9410861,23.803524 65.2202869,22.1220982 C67.1433145,19.5932533 69.6958248,18.2989258 72.9059939,18.3876144 C74.255251,18.424707 75.5718494,18.6153683 76.8417008,19.0924386 C78.5124232,19.7216016 79.7611424,20.8626172 80.7607582,22.3087165 C81.2749744,23.0510184 81.2679303,23.050505 80.5974641,23.6418694 C79.5581455,24.5606501 78.5245902,25.4842439 77.4852715,26.4051423 C77.3636014,26.5135324 77.2342469,26.6152483 77.0632684,26.7546987 C76.8295338,26.4455078 76.6239754,26.1558259 76.4024078,25.8782729 C75.5622439,24.8290904 74.621542,23.940279 73.1659836,23.8937528 C71.8013576,23.849601 70.0768443,24.7432896 69.9903945,26.4656585 C69.9455686,27.3683315 70.3208248,28.0834877 71.0149846,28.566077 C72.211834,29.3990569 73.4695184,30.1450809 74.6977459,30.9325614 C76.255123,31.9322656 77.8150615,32.9299163 79.3647541,33.9436747 C81.3537398,35.2472433 82.3949795,37.112207 82.5998975,39.4729799 C82.8201844,42.012221 82.3527152,44.3558594 80.5917008,46.2921847 C79.2616547,47.7533008 77.6011783,48.7075056 75.6973617,49.2204492 C74.2334785,49.6182645 72.7491035,49.8503181 71.2301486,49.6404688 C67.5397029,49.1295145 64.8277408,47.2595452 63.2628074,43.8267439 C63.2113858,43.7148242 63.2457095,43.4784068 63.3323514,43.4026172 C64.7528176,42.145639 66.1878842,40.9044475 67.6933914,39.5982478" id="Fill-3"></path>
                        <path d="M13.2480149,35.4958538 C13.668417,34.4766406 14.0841445,33.4570424 14.5106942,32.4402037 C16.3424693,28.0641713 18.1738601,23.6869838 20.0220927,19.3180748 C20.0861936,19.1635435 20.3191598,18.981995 20.4754739,18.9800056 C22.3294057,18.9577372 24.1853227,18.966144 26.0412398,18.9681334 C26.0963755,18.9687751 26.1518315,18.9900167 26.3252433,19.0277511 C21.9542777,29.226236 17.5977843,39.3941741 13.2399462,49.5626897 C13.1948642,49.5680162 13.1505507,49.5741127 13.1061091,49.5801451 C8.74430072,39.4089983 4.38377305,29.2384291 0,19.0147879 C0.171106557,18.9930971 0.277984119,18.9678125 0.38486168,18.9671708 C2.19640113,18.9651814 4.00934939,18.9738449 5.82159324,18.9588346 C6.13812756,18.9556836 6.28105789,19.0863421 6.39491547,19.3570285 C8.43103227,24.2238644 10.4752177,29.0881975 12.5135758,33.9538783 C12.7293801,34.4678488 12.9246926,34.9899051 13.1283299,35.5065709 C13.1686732,35.5025921 13.2090164,35.4985491 13.2480149,35.4958538" id="Fill-4"></path>
                        <path d="M92.7106814,37.1485938 C92.7106814,33.1791685 92.7023566,29.2100642 92.7183658,25.2420508 C92.7202869,24.7816657 92.5915727,24.6725056 92.1842982,24.6764844 C90.1434426,24.6967634 88.1019467,24.6866881 86.0585297,24.6846345 C85.5974641,24.6846345 85.5526383,24.6320759 85.6538166,24.1531445 C85.9900102,22.5364063 86.3242828,20.9189621 86.6828893,19.3090262 C86.7155482,19.1712444 86.9179047,19.0643304 87.0581455,18.9733956 C87.1221824,18.9324526 87.2272029,18.9667857 87.314293,18.9667857 C92.8778176,18.9667857 98.4432633,18.9718555 104.009349,18.9567104 C104.424308,18.9560045 104.611936,19.0643304 104.700307,19.5318387 C104.994237,21.0931948 105.322746,22.6487109 105.669826,24.1982589 C105.768443,24.6422154 105.611552,24.6941323 105.267034,24.6906669 C103.240266,24.6806557 101.212218,24.698111 99.1848105,24.674495 C98.7493596,24.6705162 98.6270492,24.80387 98.6270492,25.2763839 C98.6385758,33.1993192 98.6360143,41.1206501 98.6360143,49.0440346 C98.6360143,49.6546512 98.6347336,49.6546512 98.0667264,49.6546512 C96.4568391,49.6546512 94.8450307,49.6404688 93.2351434,49.6652658 C92.8291496,49.6708231 92.6985143,49.5640374 92.7004355,49.1012779 C92.717085,45.1170926 92.7106814,41.132779 92.7106814,37.1485938" id="Fill-5"></path>
                        <path d="M67.6748207,9.82338728 C66.9396773,10.5327037 66.2179816,11.222832 65.5026895,11.9184152 C65.1761014,12.237168 64.8501537,12.5561133 64.543417,12.8933482 C64.3775615,13.0766295 64.2744621,13.0938923 64.0842725,12.9099693 C62.2363601,11.124774 60.2130507,9.56181362 57.9561988,8.33512556 C56.7875256,7.70005859 55.5550717,7.17742467 54.3326716,6.64631975 C52.7973873,5.97839565 51.1784708,5.55388393 49.5352203,5.26753906 C47.1449155,4.85207589 44.7400743,4.56932478 42.3070569,4.84296317 C41.1270492,4.97567522 39.9328893,5.03291853 38.7727331,5.26163504 C37.4396773,5.52500558 36.1134734,5.87199498 34.8269083,6.30459263 C31.9169442,7.28408203 29.2328381,8.71972098 26.8089139,10.611317 C25.9068263,11.315692 25.0719775,12.1067662 24.213627,12.8651758 C24.0589139,13.0014174 23.9484503,13.1368248 23.7437244,12.9291574 C22.7193263,11.8937723 21.6864754,10.8678209 20.659644,9.83635045 C20.6408171,9.81780413 20.6408171,9.78295759 20.6327485,9.75561942 C31.8625128,-2.12089007 53.5582736,-4.36043806 67.6748207,9.82338728" id="Fill-6"></path>
                        <path d="M27.3540599,16.4349247 C29.5192751,14.3141629 31.9532531,12.6353041 34.7280994,11.4430776 C36.8320312,10.5392494 39.0082608,9.93145647 41.2762551,9.67597935 C43.6985784,9.40330357 46.1103356,9.47389509 48.5154329,9.92690011 C53.1422259,10.7983203 57.1236552,12.9023968 60.5495005,16.1119364 C60.86104,16.4041211 60.8660989,16.5879157 60.5585938,16.8858119 C59.6497823,17.7657673 58.7631276,18.6698521 57.8835169,19.579135 C57.6499744,19.8199805 57.4987193,19.8553404 57.2446849,19.5958203 C55.8847976,18.2054883 54.3027664,17.1143359 52.5617956,16.2683929 C50.5314421,15.2833203 48.416688,14.5691267 46.1473489,14.3968834 C45.6064933,14.3553627 45.0654457,14.2700112 44.5252946,14.2594224 C42.3372823,14.2161049 40.2111936,14.5573186 38.1276895,15.2520033 C35.6832095,16.0663086 33.5130635,17.3369559 31.5633325,19.0072154 C31.3187116,19.2177706 31.1099513,19.4716434 30.8582223,19.6724442 C30.779585,19.7350781 30.559106,19.7468862 30.4985912,19.6855999 C29.4536373,18.6506641 28.4248847,17.6011607 27.392418,16.5524275 C27.3741675,16.5354855 27.3741675,16.4994196 27.3540599,16.4349247" id="Fill-7"></path>
                        <path d="M44.1314037,33.4182813 C43.298604,32.5715681 42.5386142,31.7989118 41.7787526,31.0265765 C41.5210041,30.7651953 41.2732454,30.4927121 41.0030097,30.2451925 C40.7815061,30.0440709 40.7996286,29.9039788 41.0265753,29.7180022 C42.5443135,28.4741155 44.222144,28.2670257 46.0129355,28.9878292 C46.4632428,29.1677093 46.8511142,29.5092439 47.2658811,29.77762 C47.4745774,29.9120647 47.4373079,30.0400279 47.2799693,30.2006557 C46.2505123,31.2479129 45.2267546,32.3000474 44.1314037,33.4182813" id="Fill-8"></path>
                        <path d="M109.91355,49.3720285 C109.09708,48.5441183 108.354252,47.7876339 107.612065,47.033524 C107.359759,46.7768917 107.11834,46.5117885 106.852587,46.2692746 C106.636783,46.07226 106.654713,45.9351842 106.876921,45.7532506 C108.361936,44.536702 110.001921,44.3336551 111.75333,45.0382227 C112.193263,45.2161133 112.571081,45.5492411 112.978356,45.8119057 C113.181352,45.9432059 113.146773,46.0686021 112.991163,46.2255078 C111.985143,47.2484431 110.983607,48.2773465 109.91355,49.3720285" id="Fill-9"></path>
                        <path d="M57.3847976,25.2079743 C54.7380251,21.4483343 51.0866419,19.2087863 46.5005123,18.5531194 C43.3765369,18.1060826 40.3983735,18.5420815 37.5321465,19.8629129 C34.51396,21.2544643 32.1699539,23.3844671 30.4569672,26.2221819 C29.3912013,27.9874833 28.777792,29.9060324 28.5055072,31.9511328 C28.2279073,34.0468666 28.3206327,36.0920313 28.8587987,38.0508817 C29.3552126,36.1795647 31.0565446,34.7998856 33.0808145,34.7998856 C33.7150999,34.7998856 34.3169826,34.9366406 34.8607838,35.1799247 C34.8077613,34.709721 34.7855405,34.232779 34.7912398,33.7483929 C34.8231942,32.0757589 35.1761014,30.4862946 36.0281122,29.0336496 C37.2192623,27.0038867 38.9766265,25.6270313 41.1273694,24.7647879 C43.6998591,23.7320982 46.2101691,24.053803 48.604252,25.3481948 C51.0117188,26.6506083 52.6007941,28.6496317 53.323002,31.2977121 C54.0863217,34.0976925 53.7982838,36.8107813 52.2139472,39.2493331 C50.1364626,42.4446903 47.1435067,44.1204046 43.3015497,43.7070592 C40.7765113,43.435346 38.7488473,42.3474023 37.2289959,40.5487946 C36.654585,42.294202 35.0147925,43.555159 33.0808145,43.555159 C32.5060835,43.555159 31.9586322,43.4430469 31.4564549,43.2412835 C34.472272,47.3645982 38.7786885,49.4428125 44.2578125,49.5700698 C44.5283683,49.5700698 44.7998847,49.5795675 45.0705046,49.5680804 C49.3345287,49.3874944 52.9328253,47.7208929 55.871606,44.641755 C58.0264472,42.3823772 59.3677638,39.7036858 59.8840292,36.6052958 C60.5733222,32.4638198 59.788166,28.620625 57.3847976,25.2079743" id="Fill-10"></path>
                        <path d="M36.050269,39.3039453 C36.050269,41.0641127 34.6269211,42.4905106 32.8707736,42.4905106 C31.114626,42.4905106 29.6906378,41.0641127 29.6906378,39.3039453 C29.6906378,37.5436496 31.114626,36.1169308 32.8707736,36.1169308 C34.6269211,36.1169308 36.050269,37.5436496 36.050269,39.3039453" id="Fill-11"></path>
                        <path d="M52.0159452,39.5457533 C49.9489626,42.5480748 47.0238858,44.1076339 43.3029585,43.7070592 C40.777792,43.435346 38.7501281,42.3474023 37.2296363,40.5487946 C36.6556096,42.294202 35.0160733,43.555159 33.0811347,43.555159 C32.5074923,43.555159 31.9595927,43.4430469 31.4574795,43.2412835 C34.4732966,47.3645982 38.7797772,49.4428125 44.2590932,49.5700698 C44.5293289,49.5700698 44.8012935,49.5795675 45.0714652,49.5680804 C49.3355533,49.3874944 52.9337859,47.7208929 55.8726947,44.641755 C57.3132044,43.1314816 58.3887039,41.4318945 59.0985528,39.5457533 L52.0159452,39.5457533 Z" id="Fill-12"></path>
                    </g>
                </g>
            </g>
        </g>
    </g>
</svg>